<svg width="50" height="50" viewBox="0 0 50 50" fill="none" xmlns="http://www.w3.org/2000/svg">
<rect width="50" height="50" rx="5" fill="#3FC8E4"/>
<path d="M16.9206 28.36H16.2246V27.292H17.1846C17.5846 27.292 17.8486 27.468 17.9766 27.82L18.7326 29.98H19.1166C19.4526 29.98 19.7206 29.82 19.9206 29.5C20.1206 29.18 20.2206 28.736 20.2206 28.168V27.136C20.2206 26.568 20.0686 26.128 19.7646 25.816C19.4606 25.496 19.0326 25.336 18.4806 25.336C18.2166 25.336 17.9726 25.368 17.7486 25.432C17.5326 25.496 17.3406 25.584 17.1726 25.696C17.0046 25.8 16.8566 25.92 16.7286 26.056C16.6006 26.192 16.4926 26.332 16.4046 26.476L15.5766 25.744C15.6966 25.544 15.8446 25.356 16.0206 25.18C16.1966 25.004 16.4046 24.848 16.6446 24.712C16.8926 24.576 17.1726 24.468 17.4846 24.388C17.7966 24.308 18.1486 24.268 18.5406 24.268C19.5086 24.268 20.2606 24.568 20.7966 25.168C21.3406 25.76 21.6126 26.588 21.6126 27.652C21.6126 28.172 21.5526 28.64 21.4326 29.056C21.3126 29.472 21.1406 29.824 20.9166 30.112C20.6926 30.4 20.4246 30.62 20.1126 30.772C19.8006 30.924 19.4486 31 19.0566 31H17.8566L16.9206 28.36ZM25.4349 26.536C25.4349 26.152 25.3349 25.856 25.1349 25.648C24.9349 25.44 24.6189 25.336 24.1869 25.336C23.8189 25.336 23.5229 25.416 23.2989 25.576C23.0749 25.728 22.8829 25.928 22.7229 26.176L21.9309 25.48C22.1469 25.12 22.4389 24.828 22.8069 24.604C23.1749 24.38 23.6629 24.268 24.2709 24.268C25.0709 24.268 25.6829 24.456 26.1069 24.832C26.5309 25.208 26.7429 25.748 26.7429 26.452V31H25.4349V26.536ZM28.6631 27.364L27.6311 26.932C27.6631 26.54 27.7591 26.18 27.9191 25.852C28.0871 25.524 28.3071 25.244 28.5791 25.012C28.8511 24.772 29.1711 24.588 29.5391 24.46C29.9071 24.332 30.3071 24.268 30.7391 24.268C31.6911 24.268 32.4311 24.512 32.9591 25C33.4871 25.48 33.7511 26.132 33.7511 26.956V31H32.4431V27.124C32.4431 26.548 32.2871 26.108 31.9751 25.804C31.6631 25.492 31.2351 25.336 30.6911 25.336C30.2511 25.336 29.8631 25.436 29.5271 25.636C29.1991 25.828 28.9751 26.088 28.8551 26.416L29.3711 26.62C29.5951 26.708 29.7511 26.812 29.8391 26.932C29.9271 27.044 29.9711 27.212 29.9711 27.436V31H28.6631V27.364ZM5.78416 40.932H6.48016V38.364L5.44816 37.932C5.47216 37.54 5.56416 37.18 5.72416 36.852C5.89216 36.524 6.10816 36.244 6.37216 36.012C6.64416 35.772 6.96016 35.588 7.32016 35.46C7.68816 35.332 8.08816 35.268 8.52016 35.268C8.99216 35.268 9.41216 35.332 9.78016 35.46C10.1482 35.588 10.4562 35.768 10.7042 36C10.9602 36.232 11.1522 36.516 11.2802 36.852C11.4162 37.18 11.4842 37.548 11.4842 37.956V42H10.1762V38.124C10.1762 37.548 10.0242 37.108 9.72016 36.804C9.42416 36.492 9.01216 36.336 8.48416 36.336C8.04416 36.336 7.66016 36.436 7.33216 36.636C7.00416 36.828 6.78416 37.088 6.67216 37.416L7.18816 37.62C7.41216 37.708 7.56816 37.812 7.65616 37.932C7.74416 38.044 7.78816 38.212 7.78816 38.436V40.68C7.78816 41.096 7.68016 41.42 7.46416 41.652C7.24816 41.884 6.91216 42 6.45616 42H5.78416V40.932ZM15.567 37.536C15.567 37.152 15.467 36.856 15.267 36.648C15.067 36.44 14.751 36.336 14.319 36.336C13.951 36.336 13.655 36.416 13.431 36.576C13.207 36.728 13.015 36.928 12.855 37.176L12.063 36.48C12.279 36.12 12.571 35.828 12.939 35.604C13.307 35.38 13.795 35.268 14.403 35.268C15.203 35.268 15.815 35.456 16.239 35.832C16.663 36.208 16.875 36.748 16.875 37.452V42H15.567V37.536ZM20.6433 42.144C19.8113 42.144 19.1633 41.972 18.6993 41.628C18.2353 41.284 18.0033 40.8 18.0033 40.176C18.0033 39.792 18.1153 39.464 18.3393 39.192C18.5713 38.92 18.8673 38.732 19.2273 38.628V38.568C18.8273 38.472 18.5153 38.284 18.2913 38.004C18.0673 37.724 17.9553 37.38 17.9553 36.972C17.9553 36.46 18.1193 36.048 18.4473 35.736C18.7833 35.424 19.2393 35.268 19.8153 35.268C19.9913 35.268 20.1793 35.284 20.3793 35.316C20.5873 35.348 20.7753 35.408 20.9433 35.496L20.6673 36.456C20.4833 36.368 20.2793 36.324 20.0553 36.324C19.7753 36.324 19.5513 36.4 19.3833 36.552C19.2233 36.704 19.1433 36.908 19.1433 37.164C19.1433 37.284 19.1593 37.4 19.1913 37.512C19.2233 37.616 19.2793 37.712 19.3593 37.8C19.4393 37.88 19.5473 37.944 19.6833 37.992C19.8193 38.04 19.9913 38.064 20.1993 38.064H20.8593V38.952H20.2953C20.0313 38.952 19.8033 39.028 19.6113 39.18C19.4193 39.332 19.3233 39.544 19.3233 39.816V40.092C19.3233 40.412 19.4273 40.656 19.6353 40.824C19.8433 40.992 20.1873 41.076 20.6673 41.076C21.1713 41.076 21.5673 40.944 21.8553 40.68C22.1513 40.408 22.2993 40.02 22.2993 39.516V35.412H23.6073V39.696C23.6073 40.072 23.5353 40.412 23.3913 40.716C23.2553 41.012 23.0553 41.268 22.7913 41.484C22.5353 41.692 22.2233 41.856 21.8553 41.976C21.4953 42.088 21.0913 42.144 20.6433 42.144ZM27.0343 42.144C26.3463 42.144 25.8143 41.924 25.4383 41.484C25.0623 41.036 24.8743 40.404 24.8743 39.588V35.412H26.1823V39.444C26.1823 39.956 26.2863 40.348 26.4943 40.62C26.7103 40.884 27.0543 41.016 27.5263 41.016C27.7023 41.016 27.8783 40.996 28.0543 40.956C28.2303 40.908 28.3863 40.836 28.5223 40.74C28.6663 40.644 28.7783 40.524 28.8583 40.38C28.9463 40.228 28.9903 40.052 28.9903 39.852V35.412H30.2983V40.932H30.9943V42H30.1303C29.7943 42 29.5423 41.904 29.3743 41.712C29.2063 41.512 29.1143 41.236 29.0983 40.884H29.0383C28.9023 41.252 28.6663 41.556 28.3303 41.796C28.0023 42.028 27.5703 42.144 27.0343 42.144ZM34.4405 42.144C34.0405 42.144 33.6645 42.088 33.3125 41.976C32.9685 41.856 32.6685 41.696 32.4125 41.496C32.1645 41.288 31.9685 41.04 31.8245 40.752C31.6805 40.464 31.6085 40.144 31.6085 39.792V39.192C31.6085 38.912 31.6725 38.696 31.8005 38.544C31.9285 38.384 32.1605 38.304 32.4965 38.304H33.8405V39.336H32.8445V39.696C32.8445 40.176 32.9925 40.528 33.2885 40.752C33.5925 40.968 33.9965 41.076 34.5005 41.076C35.0205 41.076 35.4205 40.916 35.7005 40.596C35.9885 40.276 36.1325 39.824 36.1325 39.24V38.208C36.1325 37.616 35.9725 37.156 35.6525 36.828C35.3405 36.5 34.8965 36.336 34.3205 36.336C33.8405 36.336 33.4285 36.436 33.0845 36.636C32.7485 36.836 32.4925 37.076 32.3165 37.356L31.5005 36.624C31.7325 36.24 32.0885 35.92 32.5685 35.664C33.0485 35.4 33.6525 35.268 34.3805 35.268C35.3725 35.268 36.1445 35.572 36.6965 36.18C37.2485 36.78 37.5245 37.62 37.5245 38.7C37.5245 39.228 37.4565 39.708 37.3205 40.14C37.1845 40.564 36.9845 40.924 36.7205 41.22C36.4565 41.516 36.1325 41.744 35.7485 41.904C35.3645 42.064 34.9285 42.144 34.4405 42.144ZM39.1756 38.364L38.1436 37.932C38.1756 37.54 38.2716 37.18 38.4316 36.852C38.5996 36.524 38.8196 36.244 39.0916 36.012C39.3636 35.772 39.6836 35.588 40.0516 35.46C40.4196 35.332 40.8196 35.268 41.2516 35.268C42.2036 35.268 42.9436 35.512 43.4716 36C43.9996 36.48 44.2636 37.132 44.2636 37.956V42H42.9556V38.124C42.9556 37.548 42.7996 37.108 42.4876 36.804C42.1756 36.492 41.7476 36.336 41.2036 36.336C40.7636 36.336 40.3756 36.436 40.0396 36.636C39.7116 36.828 39.4876 37.088 39.3676 37.416L39.8836 37.62C40.1076 37.708 40.2636 37.812 40.3516 37.932C40.4396 38.044 40.4836 38.212 40.4836 38.436V42H39.1756V38.364Z" fill="black"/>
<path d="M6.014 8.863H7.431V11.021L9.251 10.761C9.58033 10.709 9.836 10.6137 10.018 10.475C10.2087 10.3277 10.3257 10.0763 10.369 9.721L10.46 8.863H11.929L11.825 9.76C11.7817 10.1673 11.6257 10.5053 11.357 10.774C11.097 11.034 10.746 11.19 10.304 11.242V11.307C10.564 11.359 10.785 11.4543 10.967 11.593C11.149 11.7317 11.2963 11.8963 11.409 12.087C11.5303 12.2777 11.6213 12.49 11.682 12.724C11.7427 12.958 11.786 13.1963 11.812 13.439L12.059 16H10.59L10.369 13.335C10.343 13.1183 10.2953 12.919 10.226 12.737C10.1653 12.555 10.0743 12.4033 9.953 12.282C9.83167 12.152 9.68 12.061 9.498 12.009C9.316 11.9483 9.09933 11.9353 8.848 11.97L7.431 12.165V16H6.014V8.863ZM16.1347 16.156C15.3894 16.156 14.813 15.9177 14.4057 15.441C13.9984 14.9557 13.7947 14.271 13.7947 13.387V8.863H15.2117V13.231C15.2117 13.7857 15.3244 14.2103 15.5497 14.505C15.7837 14.791 16.1564 14.934 16.6677 14.934C16.8584 14.934 17.049 14.9123 17.2397 14.869C17.4304 14.817 17.5994 14.739 17.7467 14.635C17.9027 14.531 18.024 14.401 18.1107 14.245C18.206 14.0803 18.2537 13.8897 18.2537 13.673V8.863H19.6707V14.843H20.4247V16H19.4887C19.1247 16 18.8517 15.896 18.6697 15.688C18.4877 15.4713 18.388 15.1723 18.3707 14.791H18.3057C18.1584 15.1897 17.9027 15.519 17.5387 15.779C17.1834 16.0303 16.7154 16.156 16.1347 16.156ZM18.2848 7.589C17.8341 7.589 17.4961 7.48067 17.2708 7.264C17.0454 7.04733 16.9328 6.744 16.9328 6.354V5.444H18.1808V6.471H21.5608V7.589H18.2848ZM21.0412 10.865H22.4842L24.2392 14.856H24.2782C24.7289 14.856 25.0755 14.6957 25.3182 14.375C25.5609 14.0457 25.6822 13.582 25.6822 12.984V11.866C25.6822 11.2853 25.5565 10.8347 25.3052 10.514C25.0539 10.1847 24.7072 10.02 24.2652 10.02H23.8232V8.863H24.2912C25.2359 8.863 25.9552 9.175 26.4492 9.799C26.9432 10.423 27.1902 11.2983 27.1902 12.425C27.1902 13.5517 26.9345 14.4313 26.4232 15.064C25.9205 15.688 25.2142 16 24.3042 16H23.3032L21.0412 10.865ZM30.9196 16.13C30.2176 16.13 29.6542 15.9567 29.2296 15.61C28.8136 15.2633 28.6056 14.739 28.6056 14.037C28.6056 13.3697 28.8049 12.854 29.2036 12.49C29.6109 12.126 30.1829 11.944 30.9196 11.944H33.1296V11.398C33.1296 10.8953 32.9909 10.514 32.7136 10.254C32.4449 9.994 32.0246 9.864 31.4526 9.864C30.9412 9.864 30.5209 9.97233 30.1916 10.189C29.8709 10.4057 29.6066 10.6787 29.3986 11.008L28.4886 10.215C28.7659 9.773 29.1429 9.41333 29.6196 9.136C30.1049 8.85 30.7462 8.707 31.5436 8.707C32.3669 8.707 33.0212 8.86733 33.5066 9.188C33.5846 8.72 33.8792 8.486 34.3906 8.486H35.9896V9.721H34.0526V9.747C34.3819 10.1717 34.5466 10.7047 34.5466 11.346V16H33.1296V12.893H31.3486C30.9326 12.893 30.6119 12.9797 30.3866 13.153C30.1699 13.3263 30.0616 13.5777 30.0616 13.907V14.167C30.0616 14.4963 30.1612 14.7563 30.3606 14.947C30.5599 15.1377 30.8329 15.233 31.1796 15.233C31.3529 15.233 31.4916 15.22 31.5956 15.194L31.7126 16.052C31.6346 16.0693 31.5132 16.0867 31.3486 16.104C31.1839 16.1213 31.0409 16.13 30.9196 16.13ZM28.939 6.471H31.24V5.444H32.41V6.575H33.372V5.444H34.542V7.589H28.939V6.471ZM39.9887 16.156C39.5554 16.156 39.148 16.0953 38.7667 15.974C38.394 15.844 38.069 15.6707 37.7917 15.454C37.523 15.2287 37.3107 14.96 37.1547 14.648C36.9987 14.336 36.9207 13.9893 36.9207 13.608V12.958C36.9207 12.6547 36.99 12.4207 37.1287 12.256C37.2674 12.0827 37.5187 11.996 37.8827 11.996H39.3387V13.114H38.2597V13.504C38.2597 14.024 38.42 14.4053 38.7407 14.648C39.07 14.882 39.5077 14.999 40.0537 14.999C40.617 14.999 41.0504 14.8257 41.3537 14.479C41.6657 14.1323 41.8217 13.6427 41.8217 13.01V11.892C41.8217 11.2507 41.6484 10.7523 41.3017 10.397C40.9637 10.0417 40.4827 9.864 39.8587 9.864C39.3387 9.864 38.8924 9.97233 38.5197 10.189C38.1557 10.4057 37.8784 10.6657 37.6877 10.969L36.8037 10.176C37.055 9.76 37.4407 9.41333 37.9607 9.136C38.4807 8.85 39.135 8.707 39.9237 8.707C40.9984 8.707 41.8347 9.03633 42.4327 9.695C43.0307 10.345 43.3297 11.255 43.3297 12.425C43.3297 12.997 43.256 13.517 43.1087 13.985C42.9614 14.4443 42.7447 14.8343 42.4587 15.155C42.1727 15.4757 41.8217 15.7227 41.4057 15.896C40.9897 16.0693 40.5174 16.156 39.9887 16.156Z" fill="black"/>
</svg>
