<svg width="24" height="24" viewBox="0 0 24 24" fill="none" xmlns="http://www.w3.org/2000/svg">
<path d="M10 6.5C10 5.67157 10.6716 5 11.5 5C12.3284 5 13 5.67157 13 6.5V18.5C13 19.3284 12.3284 20 11.5 20C10.6716 20 10 19.3284 10 18.5V6.5ZM16 12.5C16 11.6716 16.6716 11 17.5 11C18.3284 11 19 11.6716 19 12.5V18.5C19 19.3284 18.3284 20 17.5 20C16.6716 20 16 19.3284 16 18.5V12.5ZM4 15.5C4 14.6716 4.67157 14 5.5 14C6.32843 14 7 14.6716 7 15.5V18.5C7 19.3284 6.32843 20 5.5 20C4.67157 20 4 19.3284 4 18.5V15.5Z" fill="#ED5656"/>
</svg>
