<svg width="20" height="20" viewBox="0 0 20 20" fill="none" xmlns="http://www.w3.org/2000/svg">
<path fill-rule="evenodd" clip-rule="evenodd" d="M4.16536 16.666H15.832C16.053 16.666 16.265 16.7538 16.4213 16.9101C16.5776 17.0664 16.6654 17.2783 16.6654 17.4993C16.6654 17.7204 16.5776 17.9323 16.4213 18.0886C16.265 18.2449 16.053 18.3327 15.832 18.3327H4.16536C3.94435 18.3327 3.73239 18.2449 3.57611 18.0886C3.41983 17.9323 3.33203 17.7204 3.33203 17.4993C3.33203 17.2783 3.41983 17.0664 3.57611 16.9101C3.73239 16.7538 3.94435 16.666 4.16536 16.666ZM3.33203 12.4993L11.6654 4.16602L14.1654 6.66602L5.83203 14.9993H3.33203V12.4993ZM12.4987 3.33268L14.1654 1.66602L16.6654 4.16602L14.9979 5.83352L12.4987 3.33268Z" fill="white"/>
</svg>
