<svg width="64" height="64" viewBox="0 0 64 64" fill="none" xmlns="http://www.w3.org/2000/svg">
<path d="M60.182 0.333984H3.81536C2.89153 0.333984 2.00553 0.700978 1.35228 1.35423C0.699025 2.00748 0.332031 2.89348 0.332031 3.81732V60.184C0.332031 61.1078 0.699025 61.9938 1.35228 62.6471C2.00553 63.3003 2.89153 63.6673 3.81536 63.6673H34.152V39.1257H25.9187V29.6257H34.152V22.5007C33.9815 20.8279 34.179 19.1381 34.7306 17.5497C35.2823 15.9613 36.1748 14.5129 37.3455 13.306C38.5162 12.099 39.9368 11.1628 41.5076 10.5631C43.0785 9.96329 44.7615 9.71445 46.4387 9.83398C48.9034 9.81697 51.3671 9.94385 53.817 10.214V18.764H48.782C44.792 18.764 44.032 20.664 44.032 23.419V29.5307H53.532L52.297 39.0307H44.032V63.6673H60.182C60.6395 63.6673 61.0924 63.5772 61.515 63.4022C61.9377 63.2271 62.3217 62.9705 62.6451 62.6471C62.9686 62.3236 63.2252 61.9396 63.4002 61.517C63.5753 61.0944 63.6654 60.6414 63.6654 60.184V3.81732C63.6654 3.35988 63.5753 2.90692 63.4002 2.4843C63.2252 2.06169 62.9686 1.67769 62.6451 1.35423C62.3217 1.03077 61.9377 0.774192 61.515 0.599138C61.0924 0.424084 60.6395 0.333984 60.182 0.333984Z" fill="#377EF7"/>
</svg>
