<svg width="76" height="76" viewBox="0 0 76 76" fill="none" xmlns="http://www.w3.org/2000/svg">
<rect width="76" height="76" rx="8" fill="url(#paint0_linear_585_3253)"/>
<path d="M11.248 28.18C10.276 28.18 9.496 27.94 8.908 27.46C8.332 26.98 8.044 26.254 8.044 25.282C8.044 24.358 8.32 23.644 8.872 23.14C9.436 22.636 10.228 22.384 11.248 22.384H14.308V21.628C14.308 20.932 14.116 20.404 13.732 20.044C13.36 19.684 12.778 19.504 11.986 19.504C11.278 19.504 10.696 19.654 10.24 19.954C9.796 20.254 9.43 20.632 9.142 21.088L7.882 19.99C8.266 19.378 8.788 18.88 9.448 18.496C10.12 18.1 11.008 17.902 12.112 17.902C13.252 17.902 14.158 18.124 14.83 18.568C14.938 17.92 15.346 17.596 16.054 17.596H18.268V19.306H15.586V19.342C16.042 19.93 16.27 20.668 16.27 21.556V28H14.308V23.698H11.842C11.266 23.698 10.822 23.818 10.51 24.058C10.21 24.298 10.06 24.646 10.06 25.102V25.462C10.06 25.918 10.198 26.278 10.474 26.542C10.75 26.806 11.128 26.938 11.608 26.938C11.848 26.938 12.04 26.92 12.184 26.884L12.346 28.072C12.238 28.096 12.07 28.12 11.842 28.144C11.614 28.168 11.416 28.18 11.248 28.18ZM24.0087 21.304C24.0087 20.728 23.8587 20.284 23.5587 19.972C23.2587 19.66 22.7847 19.504 22.1367 19.504C21.5847 19.504 21.1407 19.624 20.8047 19.864C20.4687 20.092 20.1807 20.392 19.9407 20.764L18.7527 19.72C19.0767 19.18 19.5147 18.742 20.0667 18.406C20.6187 18.07 21.3507 17.902 22.2627 17.902C23.4627 17.902 24.3807 18.184 25.0167 18.748C25.6527 19.312 25.9707 20.122 25.9707 21.178V28H24.0087V21.304ZM32.3432 28.216C31.0952 28.216 30.1232 27.958 29.4272 27.442C28.7312 26.926 28.3832 26.2 28.3832 25.264C28.3832 24.688 28.5512 24.196 28.8872 23.788C29.2352 23.38 29.6792 23.098 30.2192 22.942V22.852C29.6192 22.708 29.1512 22.426 28.8152 22.006C28.4792 21.586 28.3112 21.07 28.3112 20.458C28.3112 19.69 28.5572 19.072 29.0492 18.604C29.5532 18.136 30.2372 17.902 31.1012 17.902C31.3652 17.902 31.6472 17.926 31.9472 17.974C32.2592 18.022 32.5412 18.112 32.7932 18.244L32.3792 19.684C32.1032 19.552 31.7972 19.486 31.4612 19.486C31.0412 19.486 30.7052 19.6 30.4532 19.828C30.2132 20.056 30.0932 20.362 30.0932 20.746C30.0932 20.926 30.1172 21.1 30.1652 21.268C30.2132 21.424 30.2972 21.568 30.4172 21.7C30.5372 21.82 30.6992 21.916 30.9032 21.988C31.1072 22.06 31.3652 22.096 31.6772 22.096H32.6672V23.428H31.8212C31.4252 23.428 31.0832 23.542 30.7952 23.77C30.5072 23.998 30.3632 24.316 30.3632 24.724V25.138C30.3632 25.618 30.5192 25.984 30.8312 26.236C31.1432 26.488 31.6592 26.614 32.3792 26.614C33.1352 26.614 33.7292 26.416 34.1612 26.02C34.6052 25.612 34.8272 25.03 34.8272 24.274V18.118H36.7892V24.544C36.7892 25.108 36.6812 25.618 36.4652 26.074C36.2612 26.518 35.9612 26.902 35.5652 27.226C35.1812 27.538 34.7132 27.784 34.1612 27.964C33.6212 28.132 33.0152 28.216 32.3432 28.216ZM43.3337 28.216C41.9657 28.216 40.9037 27.76 40.1477 26.848C39.3917 25.924 39.0137 24.658 39.0137 23.05C39.0137 22.27 39.1217 21.562 39.3377 20.926C39.5657 20.29 39.8837 19.75 40.2917 19.306C40.7117 18.85 41.2157 18.502 41.8037 18.262C42.3917 18.022 43.0517 17.902 43.7837 17.902C44.4557 17.902 45.0677 18.004 45.6197 18.208C46.1717 18.4 46.6397 18.676 47.0237 19.036C47.4197 19.396 47.7197 19.834 47.9237 20.35C48.1397 20.854 48.2477 21.418 48.2477 22.042V28H46.2857V22.204C46.2857 21.352 46.0577 20.692 45.6017 20.224C45.1457 19.744 44.5217 19.504 43.7297 19.504C42.9017 19.504 42.2537 19.762 41.7857 20.278C41.3297 20.794 41.1017 21.496 41.1017 22.384V23.698C41.1017 24.646 41.3057 25.372 41.7137 25.876C42.1337 26.368 42.7697 26.614 43.6217 26.614C43.8857 26.614 44.1317 26.59 44.3597 26.542L44.5937 28.09C44.4137 28.138 44.1977 28.168 43.9457 28.18C43.7057 28.204 43.5017 28.216 43.3337 28.216ZM46.3659 12.862H48.2019V16.354H46.3659V12.862ZM53.9846 28.216C53.4806 28.216 53.0006 28.156 52.5446 28.036C52.0886 27.916 51.6866 27.736 51.3386 27.496L52.0766 26.092C52.3166 26.236 52.5806 26.362 52.8686 26.47C53.1686 26.566 53.5106 26.614 53.8946 26.614C54.6146 26.614 55.1666 26.374 55.5506 25.894C55.9466 25.402 56.1446 24.73 56.1446 23.878V22.24C56.1446 21.4 55.9526 20.734 55.5686 20.242C55.1966 19.75 54.6446 19.504 53.9126 19.504C53.3246 19.504 52.8446 19.642 52.4726 19.918C52.1006 20.182 51.8306 20.542 51.6626 20.998L50.0606 20.242C50.3606 19.522 50.8406 18.952 51.5006 18.532C52.1606 18.112 52.9886 17.902 53.9846 17.902C54.6686 17.902 55.2746 18.022 55.8026 18.262C56.3306 18.502 56.7746 18.844 57.1346 19.288C57.4946 19.732 57.7646 20.272 57.9446 20.908C58.1366 21.544 58.2326 22.258 58.2326 23.05C58.2326 23.842 58.1366 24.562 57.9446 25.21C57.7526 25.846 57.4766 26.386 57.1166 26.83C56.7566 27.274 56.3126 27.616 55.7846 27.856C55.2566 28.096 54.6566 28.216 53.9846 28.216ZM63.7083 28.216C62.6763 28.216 61.8783 27.886 61.3143 27.226C60.7503 26.554 60.4683 25.606 60.4683 24.382V18.118H62.4303V24.166C62.4303 24.934 62.5863 25.522 62.8983 25.93C63.2223 26.326 63.7383 26.524 64.4463 26.524C64.7103 26.524 64.9743 26.494 65.2383 26.434C65.5023 26.362 65.7363 26.254 65.9403 26.11C66.1563 25.966 66.3243 25.786 66.4443 25.57C66.5763 25.342 66.6423 25.078 66.6423 24.778V18.118H68.6043V26.398H69.6483V28H68.3523C67.8483 28 67.4703 27.856 67.2183 27.568C66.9663 27.268 66.8283 26.854 66.8043 26.326H66.7143C66.5103 26.878 66.1563 27.334 65.6523 27.694C65.1603 28.042 64.5123 28.216 63.7083 28.216Z" fill="white"/>
<path d="M6.632 57V53.612H11.896V40.508H11.644L7.668 45.716L4.98 43.616L9.656 37.456H16.096V53.612H20.24V57H6.632ZM23.4211 57V53.612H28.6851V40.508H28.4331L24.4571 45.716L21.7691 43.616L26.4451 37.456H32.8851V53.612H37.0291V57H23.4211ZM47.0141 57V53.248H38.4181V49.664L46.0341 37.456H51.0181V50H53.4821V53.248H51.0181V57H47.0141ZM41.7781 50H47.0141V41.796H46.7341L41.7781 50ZM62.8792 57.336C61.7219 57.336 60.6859 57.1587 59.7712 56.804C58.8565 56.4307 58.0819 55.908 57.4472 55.236C56.8312 54.5453 56.3552 53.724 56.0192 52.772C55.7019 51.82 55.5432 50.756 55.5432 49.58C55.5432 48.2173 55.7485 46.9293 56.1592 45.716C56.5885 44.484 57.1299 43.3547 57.7832 42.328C58.4552 41.2827 59.2019 40.3493 60.0232 39.528C60.8632 38.7067 61.7032 38.016 62.5432 37.456H68.3392C67.1445 38.3147 66.0712 39.136 65.1192 39.92C64.1672 40.6853 63.3365 41.46 62.6272 42.244C61.9365 43.028 61.3579 43.8307 60.8912 44.652C60.4432 45.4547 60.1259 46.3227 59.9392 47.256L60.1912 47.34C60.3592 46.9667 60.5552 46.6027 60.7792 46.248C61.0219 45.8933 61.3112 45.5853 61.6472 45.324C62.0019 45.044 62.4125 44.82 62.8792 44.652C63.3459 44.484 63.8872 44.4 64.5032 44.4C65.3059 44.4 66.0525 44.5493 66.7432 44.848C67.4525 45.128 68.0592 45.5293 68.5632 46.052C69.0859 46.5747 69.4872 47.2187 69.7672 47.984C70.0659 48.7307 70.2152 49.5613 70.2152 50.476C70.2152 51.484 70.0379 52.408 69.6832 53.248C69.3472 54.088 68.8525 54.816 68.1992 55.432C67.5645 56.0293 66.7992 56.496 65.9032 56.832C65.0072 57.168 63.9992 57.336 62.8792 57.336ZM62.8792 54.06C63.8125 54.06 64.5405 53.808 65.0632 53.304C65.5859 52.7813 65.8472 52.044 65.8472 51.092V50.588C65.8472 49.636 65.5859 48.908 65.0632 48.404C64.5405 47.8813 63.8125 47.62 62.8792 47.62C61.9459 47.62 61.2179 47.8813 60.6952 48.404C60.1725 48.908 59.9112 49.636 59.9112 50.588V51.092C59.9112 52.044 60.1725 52.7813 60.6952 53.304C61.2179 53.808 61.9459 54.06 62.8792 54.06Z" fill="white"/>
<defs>
<linearGradient id="paint0_linear_585_3253" x1="38" y1="0" x2="38" y2="76" gradientUnits="userSpaceOnUse">
<stop stop-color="#19397D"/>
<stop offset="0.525" stop-color="#2D68E3"/>
<stop offset="1" stop-color="#19397D"/>
</linearGradient>
</defs>
</svg>
