<svg width="50" height="50" viewBox="0 0 50 50" fill="none" xmlns="http://www.w3.org/2000/svg">
<rect width="50" height="50" rx="5" fill="#FFC90A"/>
<path d="M0 5C0 2.23858 2.23858 0 5 0H45C47.7614 0 50 2.23858 50 5V21H0V5Z" fill="#19397D"/>
<path d="M9.457 16L7.312 6.926H8.807L9.73 11.294L10.367 14.31H10.406L11.134 11.294L12.213 6.926H13.851L14.917 11.294L15.632 14.297H15.671L16.334 11.294L17.283 6.926H18.726L16.49 16H14.839L13.682 11.307L13.006 8.551H12.98L12.291 11.307L11.108 16H9.457ZM21.5429 16L19.3979 6.926H20.8929L21.8159 11.294L22.4529 14.31H22.4919L23.2199 11.294L24.2989 6.926H25.9369L27.0029 11.294L27.7179 14.297H27.7569L28.4199 11.294L29.3689 6.926H30.8119L28.5759 16H26.9249L25.7679 11.307L25.0919 8.551H25.0659L24.3769 11.307L23.1939 16H21.5429ZM33.6289 16L31.4839 6.926H32.9789L33.9019 11.294L34.5389 14.31H34.5779L35.3059 11.294L36.3849 6.926H38.0229L39.0889 11.294L39.8039 14.297H39.8429L40.5059 11.294L41.4549 6.926H42.8979L40.6619 16H39.0109L37.8539 11.307L37.1779 8.551H37.1519L36.4629 11.307L35.2799 16H33.6289Z" fill="white"/>
<path d="M3.832 33.12C3.184 33.12 2.664 32.96 2.272 32.64C1.888 32.32 1.696 31.836 1.696 31.188C1.696 30.572 1.88 30.096 2.248 29.76C2.624 29.424 3.152 29.256 3.832 29.256H5.872V28.752C5.872 28.288 5.744 27.936 5.488 27.696C5.24 27.456 4.852 27.336 4.324 27.336C3.852 27.336 3.464 27.436 3.16 27.636C2.864 27.836 2.62 28.088 2.428 28.392L1.588 27.66C1.844 27.252 2.192 26.92 2.632 26.664C3.08 26.4 3.672 26.268 4.408 26.268C5.168 26.268 5.772 26.416 6.22 26.712C6.292 26.28 6.564 26.064 7.036 26.064H8.512V27.204H6.724V27.228C7.028 27.62 7.18 28.112 7.18 28.704V33H5.872V30.132H4.228C3.844 30.132 3.548 30.212 3.34 30.372C3.14 30.532 3.04 30.764 3.04 31.068V31.308C3.04 31.612 3.132 31.852 3.316 32.028C3.5 32.204 3.752 32.292 4.072 32.292C4.232 32.292 4.36 32.28 4.456 32.256L4.564 33.048C4.492 33.064 4.38 33.08 4.228 33.096C4.076 33.112 3.944 33.12 3.832 33.12ZM11.5712 33.144C10.8832 33.144 10.3512 32.924 9.97516 32.484C9.59916 32.036 9.41116 31.404 9.41116 30.588V26.412H10.7192V30.444C10.7192 30.956 10.8232 31.348 11.0312 31.62C11.2472 31.884 11.5912 32.016 12.0632 32.016C12.2392 32.016 12.4152 31.996 12.5912 31.956C12.7672 31.908 12.9232 31.836 13.0592 31.74C13.2032 31.644 13.3152 31.524 13.3952 31.38C13.4832 31.228 13.5272 31.052 13.5272 30.852V26.412H14.8352V31.932H15.5312V33H14.6672C14.3312 33 14.0792 32.904 13.9112 32.712C13.7432 32.512 13.6512 32.236 13.6352 31.884H13.5752C13.4392 32.252 13.2032 32.556 12.8672 32.796C12.5392 33.028 12.1072 33.144 11.5712 33.144ZM16.1002 28.26H17.4322L19.0522 31.944H19.0882C19.5042 31.944 19.8242 31.796 20.0482 31.5C20.2722 31.196 20.3842 30.768 20.3842 30.216V29.184C20.3842 28.648 20.2682 28.232 20.0362 27.936C19.8042 27.632 19.4842 27.48 19.0762 27.48H18.6682V26.412H19.1002C19.9722 26.412 20.6362 26.7 21.0922 27.276C21.5482 27.852 21.7762 28.66 21.7762 29.7C21.7762 30.74 21.5402 31.552 21.0682 32.136C20.6042 32.712 19.9522 33 19.1122 33H18.1882L16.1002 28.26ZM23.8923 33.144C23.5963 33.144 23.3763 33.068 23.2323 32.916C23.0883 32.756 23.0163 32.56 23.0163 32.328V32.148C23.0163 31.916 23.0883 31.724 23.2323 31.572C23.3763 31.412 23.5963 31.332 23.8923 31.332C24.1883 31.332 24.4083 31.412 24.5523 31.572C24.6963 31.724 24.7683 31.916 24.7683 32.148V32.328C24.7683 32.56 24.6963 32.756 24.5523 32.916C24.4083 33.068 24.1883 33.144 23.8923 33.144ZM29.3408 33.144C28.9008 33.144 28.5048 33.084 28.1528 32.964C27.8088 32.836 27.5128 32.66 27.2648 32.436C27.0248 32.204 26.8368 31.928 26.7008 31.608C26.5728 31.28 26.5088 30.916 26.5088 30.516V26.412H27.8168V30.42C27.8168 30.948 27.9488 31.356 28.2128 31.644C28.4848 31.932 28.8608 32.076 29.3408 32.076C29.8208 32.076 30.1928 31.932 30.4568 31.644C30.7288 31.356 30.8648 30.948 30.8648 30.42V24.204H32.1728V30.516C32.1728 30.916 32.1048 31.28 31.9688 31.608C31.8408 31.928 31.6528 32.204 31.4048 32.436C31.1648 32.66 30.8688 32.836 30.5168 32.964C30.1728 33.084 29.7808 33.144 29.3408 33.144ZM35.8828 33.12C35.2348 33.12 34.7148 32.96 34.3228 32.64C33.9388 32.32 33.7468 31.836 33.7468 31.188C33.7468 30.572 33.9308 30.096 34.2988 29.76C34.6748 29.424 35.2028 29.256 35.8828 29.256H37.9228V28.752C37.9228 28.288 37.7948 27.936 37.5388 27.696C37.2908 27.456 36.9028 27.336 36.3748 27.336C35.9028 27.336 35.5148 27.436 35.2108 27.636C34.9148 27.836 34.6708 28.088 34.4788 28.392L33.6388 27.66C33.8948 27.252 34.2428 26.92 34.6828 26.664C35.1308 26.4 35.7228 26.268 36.4588 26.268C37.3628 26.268 38.0508 26.48 38.5228 26.904C38.9948 27.32 39.2308 27.92 39.2308 28.704V33H37.9228V30.132H36.2788C35.8948 30.132 35.5988 30.212 35.3908 30.372C35.1908 30.532 35.0908 30.764 35.0908 31.068V31.308C35.0908 31.612 35.1828 31.852 35.3668 32.028C35.5508 32.204 35.8028 32.292 36.1228 32.292C36.2828 32.292 36.4108 32.28 36.5068 32.256L36.6148 33.048C36.5428 33.064 36.4308 33.08 36.2788 33.096C36.1268 33.112 35.9948 33.12 35.8828 33.12ZM37.9426 25.236C37.5266 25.236 37.2146 25.136 37.0066 24.936C36.7986 24.736 36.6946 24.456 36.6946 24.096V23.256H37.8466V24.204H40.9666V25.236H37.9426ZM43.5975 33.144C42.6855 33.144 41.9775 32.84 41.4735 32.232C40.9695 31.616 40.7175 30.772 40.7175 29.7C40.7175 29.18 40.7895 28.708 40.9335 28.284C41.0855 27.86 41.2975 27.5 41.5695 27.204C41.8495 26.9 42.1855 26.668 42.5775 26.508C42.9695 26.348 43.4095 26.268 43.8975 26.268C44.3455 26.268 44.7535 26.336 45.1215 26.472C45.4895 26.6 45.8015 26.784 46.0575 27.024C46.3215 27.264 46.5215 27.556 46.6575 27.9C46.8015 28.236 46.8735 28.612 46.8735 29.028V33H45.5655V29.136C45.5655 28.568 45.4135 28.128 45.1095 27.816C44.8055 27.496 44.3895 27.336 43.8615 27.336C43.3095 27.336 42.8775 27.508 42.5655 27.852C42.2615 28.196 42.1095 28.664 42.1095 29.256V30.132C42.1095 30.764 42.2455 31.248 42.5175 31.584C42.7975 31.912 43.2215 32.076 43.7895 32.076C43.9655 32.076 44.1295 32.06 44.2815 32.028L44.4375 33.06C44.3175 33.092 44.1735 33.112 44.0055 33.12C43.8455 33.136 43.7095 33.144 43.5975 33.144ZM3.124 44.09C2.638 44.09 2.248 43.97 1.954 43.73C1.666 43.49 1.522 43.127 1.522 42.641C1.522 42.179 1.66 41.822 1.936 41.57C2.218 41.318 2.614 41.192 3.124 41.192H4.654V40.814C4.654 40.466 4.558 40.202 4.366 40.022C4.18 39.842 3.889 39.752 3.493 39.752C3.139 39.752 2.848 39.827 2.62 39.977C2.398 40.127 2.215 40.316 2.071 40.544L1.441 39.995C1.633 39.689 1.894 39.44 2.224 39.248C2.56 39.05 3.004 38.951 3.556 38.951C4.126 38.951 4.579 39.062 4.915 39.284C4.969 38.96 5.173 38.798 5.527 38.798H6.634V39.653H5.293V39.671C5.521 39.965 5.635 40.334 5.635 40.778V44H4.654V41.849H3.421C3.133 41.849 2.911 41.909 2.755 42.029C2.605 42.149 2.53 42.323 2.53 42.551V42.731C2.53 42.959 2.599 43.139 2.737 43.271C2.875 43.403 3.064 43.469 3.304 43.469C3.424 43.469 3.52 43.46 3.592 43.442L3.673 44.036C3.619 44.048 3.535 44.06 3.421 44.072C3.307 44.084 3.208 44.09 3.124 44.09ZM5.13684 37.889C5.26284 37.889 5.36484 37.856 5.44284 37.79C5.51484 37.718 5.55084 37.622 5.55084 37.502V37.358C5.55084 37.238 5.51484 37.145 5.44284 37.079C5.36484 37.007 5.26284 36.971 5.13684 36.971C5.01084 36.971 4.91184 37.007 4.83984 37.079C4.76184 37.145 4.72284 37.238 4.72284 37.358V37.502C4.72284 37.622 4.76184 37.718 4.83984 37.79C4.91184 37.856 5.01084 37.889 5.13684 37.889ZM5.13684 38.483C4.80084 38.483 4.53384 38.384 4.33584 38.186C4.13784 37.988 4.03884 37.736 4.03884 37.43C4.03884 37.124 4.13784 36.872 4.33584 36.674C4.53384 36.476 4.80084 36.377 5.13684 36.377C5.47284 36.377 5.73984 36.476 5.93784 36.674C6.13584 36.872 6.23484 37.124 6.23484 37.43C6.23484 37.736 6.13584 37.988 5.93784 38.186C5.73984 38.384 5.47284 38.483 5.13684 38.483ZM9.50437 40.652C9.50437 40.364 9.42937 40.142 9.27937 39.986C9.12937 39.83 8.89237 39.752 8.56837 39.752C8.29237 39.752 8.07037 39.812 7.90237 39.932C7.73437 40.046 7.59037 40.196 7.47037 40.382L6.87637 39.86C7.03837 39.59 7.25737 39.371 7.53337 39.203C7.80937 39.035 8.17537 38.951 8.63137 38.951C9.23137 38.951 9.69037 39.092 10.0084 39.374C10.3264 39.656 10.4854 40.061 10.4854 40.589V44H9.50437V40.652ZM13.4196 44.108C12.9036 44.108 12.5046 43.943 12.2226 43.613C11.9406 43.277 11.7996 42.803 11.7996 42.191V39.059H12.7806V42.083C12.7806 42.467 12.8586 42.761 13.0146 42.965C13.1766 43.163 13.4346 43.262 13.7886 43.262C13.9206 43.262 14.0526 43.247 14.1846 43.217C14.3166 43.181 14.4336 43.127 14.5356 43.055C14.6436 42.983 14.7276 42.893 14.7876 42.785C14.8536 42.671 14.8866 42.539 14.8866 42.389V39.059H15.8676V43.199H16.3896V44H15.7416C15.4896 44 15.3006 43.928 15.1746 43.784C15.0486 43.634 14.9796 43.427 14.9676 43.163H14.9226C14.8206 43.439 14.6436 43.667 14.3916 43.847C14.1456 44.021 13.8216 44.108 13.4196 44.108ZM14.9081 38.177C14.5961 38.177 14.3621 38.102 14.2061 37.952C14.0501 37.802 13.9721 37.592 13.9721 37.322V36.692H14.8361V37.403H17.1761V38.177H14.9081ZM17.8315 41.273L17.0575 40.949C17.0815 40.655 17.1535 40.385 17.2735 40.139C17.3995 39.893 17.5645 39.683 17.7685 39.509C17.9725 39.329 18.2125 39.191 18.4885 39.095C18.7645 38.999 19.0645 38.951 19.3885 38.951C20.1025 38.951 20.6575 39.134 21.0535 39.5C21.4495 39.86 21.6475 40.349 21.6475 40.967V44H20.6665V41.093C20.6665 40.661 20.5495 40.331 20.3155 40.103C20.0815 39.869 19.7605 39.752 19.3525 39.752C19.0225 39.752 18.7315 39.827 18.4795 39.977C18.2335 40.121 18.0655 40.316 17.9755 40.562L18.3625 40.715C18.5305 40.781 18.6475 40.859 18.7135 40.949C18.7795 41.033 18.8125 41.159 18.8125 41.327V44H17.8315V41.273ZM24.5817 44.108C24.0657 44.108 23.6667 43.943 23.3847 43.613C23.1027 43.277 22.9617 42.803 22.9617 42.191V39.059H23.9427V42.083C23.9427 42.467 24.0207 42.761 24.1767 42.965C24.3387 43.163 24.5967 43.262 24.9507 43.262C25.0827 43.262 25.2147 43.247 25.3467 43.217C25.4787 43.181 25.5957 43.127 25.6977 43.055C25.8057 42.983 25.8897 42.893 25.9497 42.785C26.0157 42.671 26.0487 42.539 26.0487 42.389V39.059H27.0297V43.199H27.5517V44H26.9037C26.6517 44 26.4627 43.928 26.3367 43.784C26.2107 43.634 26.1417 43.427 26.1297 43.163H26.0847C25.9827 43.439 25.8057 43.667 25.5537 43.847C25.3077 44.021 24.9837 44.108 24.5817 44.108ZM30.519 40.652C30.519 40.364 30.444 40.142 30.294 39.986C30.144 39.83 29.907 39.752 29.583 39.752C29.307 39.752 29.085 39.812 28.917 39.932C28.749 40.046 28.605 40.196 28.485 40.382L27.891 39.86C28.053 39.59 28.272 39.371 28.548 39.203C28.824 39.035 29.19 38.951 29.646 38.951C30.246 38.951 30.705 39.092 31.023 39.374C31.341 39.656 31.5 40.061 31.5 40.589V44H30.519V40.652ZM34.6862 44.108C34.0622 44.108 33.5762 43.979 33.2282 43.721C32.8802 43.463 32.7062 43.1 32.7062 42.632C32.7062 42.344 32.7902 42.098 32.9582 41.894C33.1322 41.69 33.3542 41.549 33.6242 41.471V41.426C33.3242 41.354 33.0902 41.213 32.9222 41.003C32.7542 40.793 32.6702 40.535 32.6702 40.229C32.6702 39.845 32.7932 39.536 33.0392 39.302C33.2912 39.068 33.6332 38.951 34.0652 38.951C34.1972 38.951 34.3382 38.963 34.4882 38.987C34.6442 39.011 34.7852 39.056 34.9112 39.122L34.7042 39.842C34.5662 39.776 34.4132 39.743 34.2452 39.743C34.0352 39.743 33.8672 39.8 33.7412 39.914C33.6212 40.028 33.5612 40.181 33.5612 40.373C33.5612 40.463 33.5732 40.55 33.5972 40.634C33.6212 40.712 33.6632 40.784 33.7232 40.85C33.7832 40.91 33.8642 40.958 33.9662 40.994C34.0682 41.03 34.1972 41.048 34.3532 41.048H34.8482V41.714H34.4252C34.2272 41.714 34.0562 41.771 33.9122 41.885C33.7682 41.999 33.6962 42.158 33.6962 42.362V42.569C33.6962 42.809 33.7742 42.992 33.9302 43.118C34.0862 43.244 34.3442 43.307 34.7042 43.307C35.0822 43.307 35.3792 43.208 35.5952 43.01C35.8172 42.806 35.9282 42.515 35.9282 42.137V39.059H36.9092V42.272C36.9092 42.554 36.8552 42.809 36.7472 43.037C36.6452 43.259 36.4952 43.451 36.2972 43.613C36.1052 43.769 35.8712 43.892 35.5952 43.982C35.3252 44.066 35.0222 44.108 34.6862 44.108ZM38.7055 41.273L37.9315 40.949C37.9555 40.655 38.0275 40.385 38.1475 40.139C38.2735 39.893 38.4385 39.683 38.6425 39.509C38.8465 39.329 39.0865 39.191 39.3625 39.095C39.6385 38.999 39.9385 38.951 40.2625 38.951C40.9765 38.951 41.5315 39.134 41.9275 39.5C42.3235 39.86 42.5215 40.349 42.5215 40.967V44H41.5405V41.093C41.5405 40.661 41.4235 40.331 41.1895 40.103C40.9555 39.869 40.6345 39.752 40.2265 39.752C39.8965 39.752 39.6055 39.827 39.3535 39.977C39.1075 40.121 38.9395 40.316 38.8495 40.562L39.2365 40.715C39.4045 40.781 39.5215 40.859 39.5875 40.949C39.6535 41.033 39.6865 41.159 39.6865 41.327V44H38.7055V41.273ZM46.4637 40.22H46.4187C46.3827 40.334 46.3287 40.445 46.2567 40.553C46.1847 40.655 46.0917 40.748 45.9777 40.832C45.8637 40.916 45.7257 40.985 45.5637 41.039C45.4017 41.087 45.2097 41.111 44.9877 41.111C44.5257 41.111 44.1627 40.982 43.8987 40.724C43.6347 40.46 43.5027 40.073 43.5027 39.563V39.059H44.4837V39.428C44.4837 40.004 44.7627 40.292 45.3207 40.292H45.4647C45.6027 40.292 45.7317 40.277 45.8517 40.247C45.9717 40.211 46.0767 40.16 46.1667 40.094C46.2567 40.022 46.3287 39.932 46.3827 39.824C46.4367 39.71 46.4637 39.575 46.4637 39.419V39.059H47.4447V44H46.4637V40.22Z" fill="black"/>
</svg>
