<svg width="50" height="50" viewBox="0 0 50 50" fill="none" xmlns="http://www.w3.org/2000/svg">
<rect width="50" height="50" rx="5" fill="#FFFF54"/>
<path d="M0 5C0 2.23858 2.23858 0 5 0H45C47.7614 0 50 2.23858 50 5V21H0V5Z" fill="#55A9DD"/>
<path d="M2.15607 30.273L1.38207 29.949C1.40607 29.655 1.47807 29.385 1.59807 29.139C1.72407 28.893 1.88907 28.683 2.09307 28.509C2.29707 28.329 2.53707 28.191 2.81307 28.095C3.08907 27.999 3.38907 27.951 3.71307 27.951C4.42707 27.951 4.98207 28.134 5.37807 28.5C5.77407 28.86 5.97207 29.349 5.97207 29.967V33H4.99107V30.093C4.99107 29.661 4.87407 29.331 4.64007 29.103C4.40607 28.869 4.08507 28.752 3.67707 28.752C3.34707 28.752 3.05607 28.827 2.80407 28.977C2.55807 29.121 2.39007 29.316 2.30007 29.562L2.68707 29.715C2.85507 29.781 2.97207 29.859 3.03807 29.949C3.10407 30.033 3.13707 30.159 3.13707 30.327V33H2.15607V30.273ZM8.73528 33.108C8.27328 33.108 7.88028 33.03 7.55628 32.874C7.23828 32.712 6.95928 32.487 6.71928 32.199L7.34028 31.614C7.52028 31.842 7.73028 32.016 7.97028 32.136C8.21028 32.256 8.48328 32.316 8.78928 32.316C9.11328 32.316 9.35328 32.259 9.50928 32.145C9.67128 32.025 9.75228 31.857 9.75228 31.641C9.75228 31.449 9.68928 31.302 9.56328 31.2C9.44328 31.092 9.25128 31.02 8.98728 30.984L8.52828 30.921C8.30628 30.891 8.09628 30.843 7.89828 30.777C7.70028 30.711 7.52628 30.621 7.37628 30.507C7.23228 30.393 7.11528 30.252 7.02528 30.084C6.94128 29.916 6.89928 29.709 6.89928 29.463C6.89928 29.223 6.94428 29.01 7.03428 28.824C7.12428 28.632 7.25028 28.473 7.41228 28.347C7.57428 28.215 7.76628 28.116 7.98828 28.05C8.21628 27.984 8.46528 27.951 8.73528 27.951C9.18528 27.951 9.55428 28.02 9.84228 28.158C10.1303 28.29 10.3853 28.476 10.6073 28.716L10.0133 29.31C9.87528 29.154 9.69828 29.022 9.48228 28.914C9.26628 28.806 9.01728 28.752 8.73528 28.752C8.44128 28.752 8.21928 28.809 8.06928 28.923C7.91928 29.037 7.84428 29.193 7.84428 29.391C7.84428 29.601 7.91328 29.757 8.05128 29.859C8.18928 29.961 8.39328 30.03 8.66328 30.066L9.12228 30.138C9.35628 30.174 9.56928 30.225 9.76128 30.291C9.95928 30.357 10.1273 30.447 10.2653 30.561C10.4033 30.669 10.5083 30.804 10.5803 30.966C10.6583 31.128 10.6973 31.323 10.6973 31.551C10.6973 31.785 10.6493 31.998 10.5533 32.19C10.4633 32.382 10.3313 32.547 10.1573 32.685C9.98928 32.817 9.78228 32.922 9.53628 33C9.29628 33.072 9.02928 33.108 8.73528 33.108ZM13.9552 33.108C13.7452 33.108 13.5592 33.081 13.3972 33.027C13.2412 32.979 13.1062 32.913 12.9922 32.829C12.8782 32.739 12.7822 32.64 12.7042 32.532C12.6262 32.418 12.5662 32.301 12.5242 32.181H12.4792V33H11.4982V28.059H12.4792V31.389C12.4792 31.539 12.5122 31.671 12.5782 31.785C12.6442 31.893 12.7282 31.983 12.8302 32.055C12.9322 32.127 13.0492 32.181 13.1812 32.217C13.3132 32.247 13.4482 32.262 13.5862 32.262C13.9642 32.262 14.2312 32.16 14.3872 31.956C14.5492 31.746 14.6302 31.455 14.6302 31.083V28.059H15.6112V31.191C15.6112 31.809 15.4672 32.283 15.1792 32.613C14.8912 32.943 14.4832 33.108 13.9552 33.108ZM16.6048 28.059H17.5858V28.878H17.6308C17.6728 28.758 17.7328 28.644 17.8108 28.536C17.8888 28.422 17.9848 28.323 18.0988 28.239C18.2128 28.149 18.3478 28.08 18.5038 28.032C18.6658 27.978 18.8518 27.951 19.0618 27.951C19.5898 27.951 19.9978 28.116 20.2858 28.446C20.5738 28.776 20.7178 29.25 20.7178 29.868V33H19.7368V29.976C19.7368 29.604 19.6558 29.316 19.4938 29.112C19.3378 28.902 19.0708 28.797 18.6928 28.797C18.5548 28.797 18.4198 28.815 18.2878 28.851C18.1558 28.881 18.0388 28.932 17.9368 29.004C17.8348 29.076 17.7508 29.169 17.6848 29.283C17.6188 29.391 17.5858 29.52 17.5858 29.67V33H16.6048V28.059ZM23.7835 29.652C23.7835 29.364 23.7085 29.142 23.5585 28.986C23.4085 28.83 23.1715 28.752 22.8475 28.752C22.5715 28.752 22.3495 28.812 22.1815 28.932C22.0135 29.046 21.8695 29.196 21.7495 29.382L21.1555 28.86C21.3175 28.59 21.5365 28.371 21.8125 28.203C22.0885 28.035 22.4545 27.951 22.9105 27.951C23.5105 27.951 23.9695 28.092 24.2875 28.374C24.6055 28.656 24.7645 29.061 24.7645 29.589V33H23.7835V29.652ZM25.2687 29.445H26.2677L27.4827 32.208H27.5097C27.8217 32.208 28.0617 32.097 28.2297 31.875C28.3977 31.647 28.4817 31.326 28.4817 30.912V30.138C28.4817 29.736 28.3947 29.424 28.2207 29.202C28.0467 28.974 27.8067 28.86 27.5007 28.86H27.1947V28.059H27.5187C28.1727 28.059 28.6707 28.275 29.0127 28.707C29.3547 29.139 29.5257 29.745 29.5257 30.525C29.5257 31.305 29.3487 31.914 28.9947 32.352C28.6467 32.784 28.1577 33 27.5277 33H26.8347L25.2687 29.445ZM30.3256 28.059H31.3066V29.553L32.5666 29.373C32.7946 29.337 32.9716 29.271 33.0976 29.175C33.2296 29.073 33.3106 28.899 33.3406 28.653L33.4036 28.059H34.4206L34.3486 28.68C34.3186 28.962 34.2106 29.196 34.0246 29.382C33.8446 29.562 33.6016 29.67 33.2956 29.706V29.751C33.4756 29.787 33.6286 29.853 33.7546 29.949C33.8806 30.045 33.9826 30.159 34.0606 30.291C34.1446 30.423 34.2076 30.57 34.2496 30.732C34.2916 30.894 34.3216 31.059 34.3396 31.227L34.5106 33H33.4936L33.3406 31.155C33.3226 31.005 33.2896 30.867 33.2416 30.741C33.1996 30.615 33.1366 30.51 33.0526 30.426C32.9686 30.336 32.8636 30.273 32.7376 30.237C32.6116 30.195 32.4616 30.186 32.2876 30.21L31.3066 30.345V33H30.3256V28.059ZM36.8192 33.09C36.3332 33.09 35.9432 32.97 35.6492 32.73C35.3612 32.49 35.2172 32.127 35.2172 31.641C35.2172 31.179 35.3552 30.822 35.6312 30.57C35.9132 30.318 36.3092 30.192 36.8192 30.192H38.3492V29.814C38.3492 29.466 38.2532 29.202 38.0612 29.022C37.8752 28.842 37.5842 28.752 37.1882 28.752C36.8342 28.752 36.5432 28.827 36.3152 28.977C36.0932 29.127 35.9102 29.316 35.7662 29.544L35.1362 28.995C35.3282 28.689 35.5892 28.44 35.9192 28.248C36.2552 28.05 36.6992 27.951 37.2512 27.951C37.9292 27.951 38.4452 28.11 38.7992 28.428C39.1532 28.74 39.3302 29.19 39.3302 29.778V33H38.3492V30.849H37.1162C36.8282 30.849 36.6062 30.909 36.4502 31.029C36.3002 31.149 36.2252 31.323 36.2252 31.551V31.731C36.2252 31.959 36.2942 32.139 36.4322 32.271C36.5702 32.403 36.7592 32.469 36.9992 32.469C37.1192 32.469 37.2152 32.46 37.2872 32.442L37.3682 33.036C37.3142 33.048 37.2302 33.06 37.1162 33.072C37.0022 33.084 36.9032 33.09 36.8192 33.09ZM41.8402 33.108C41.5882 33.108 41.3482 33.078 41.1202 33.018C40.8922 32.958 40.6912 32.868 40.5172 32.748L40.8862 32.046C41.0062 32.118 41.1382 32.181 41.2822 32.235C41.4322 32.283 41.6032 32.307 41.7952 32.307C42.1552 32.307 42.4312 32.187 42.6232 31.947C42.8212 31.701 42.9202 31.365 42.9202 30.939V30.12C42.9202 29.7 42.8242 29.367 42.6322 29.121C42.4462 28.875 42.1702 28.752 41.8042 28.752C41.5102 28.752 41.2702 28.821 41.0842 28.959C40.8982 29.091 40.7632 29.271 40.6792 29.499L39.8782 29.121C40.0282 28.761 40.2682 28.476 40.5982 28.266C40.9282 28.056 41.3422 27.951 41.8402 27.951C42.1822 27.951 42.4852 28.011 42.7492 28.131C43.0132 28.251 43.2352 28.422 43.4152 28.644C43.5952 28.866 43.7302 29.136 43.8202 29.454C43.9162 29.772 43.9642 30.129 43.9642 30.525C43.9642 30.921 43.9162 31.281 43.8202 31.605C43.7242 31.923 43.5862 32.193 43.4062 32.415C43.2262 32.637 43.0042 32.808 42.7402 32.928C42.4762 33.048 42.1762 33.108 41.8402 33.108ZM44.2721 29.445H45.2711L46.4861 32.208H46.5131C46.8251 32.208 47.0651 32.097 47.2331 31.875C47.4011 31.647 47.4851 31.326 47.4851 30.912V30.138C47.4851 29.736 47.3981 29.424 47.2241 29.202C47.0501 28.974 46.8101 28.86 46.5041 28.86H46.1981V28.059H46.5221C47.1761 28.059 47.6741 28.275 48.0161 28.707C48.3581 29.139 48.5291 29.745 48.5291 30.525C48.5291 31.305 48.3521 31.914 47.9981 32.352C47.6501 32.784 47.1611 33 46.5311 33H45.8381L44.2721 29.445ZM17.2721 44.108C16.9721 44.108 16.6991 44.072 16.4531 44C16.2131 43.928 16.0061 43.82 15.8321 43.676C15.6581 43.532 15.5231 43.349 15.4271 43.127C15.3311 42.905 15.2831 42.644 15.2831 42.344C15.2831 42.002 15.3281 41.732 15.4181 41.534C15.5141 41.33 15.6221 41.147 15.7421 40.985C15.8561 40.835 15.9491 40.682 16.0211 40.526C16.0931 40.37 16.1291 40.211 16.1291 40.049V39.878H15.2201V39.059H16.2461C16.5161 39.059 16.7231 39.125 16.8671 39.257C17.0171 39.383 17.0921 39.557 17.0921 39.779V39.842C17.0921 40.04 17.0561 40.232 16.9841 40.418C16.9181 40.598 16.8161 40.808 16.6781 41.048C16.5701 41.24 16.4831 41.417 16.4171 41.579C16.3571 41.735 16.3271 41.918 16.3271 42.128V42.389C16.3271 42.689 16.4081 42.917 16.5701 43.073C16.7381 43.229 16.9661 43.307 17.2541 43.307C17.5421 43.307 17.7671 43.229 17.9291 43.073C18.0971 42.917 18.1811 42.689 18.1811 42.389V41.696C18.1811 41.42 18.1331 41.207 18.0371 41.057C17.9471 40.907 17.7971 40.832 17.5871 40.832H17.4161V40.085H17.6321C17.8121 40.085 17.9591 40.034 18.0731 39.932C18.1871 39.824 18.2441 39.65 18.2441 39.41V38.879H19.2071V39.338C19.2071 39.608 19.1261 39.836 18.9641 40.022C18.8081 40.202 18.5831 40.316 18.2891 40.364V40.418C18.5951 40.514 18.8261 40.703 18.9821 40.985C19.1441 41.261 19.2251 41.624 19.2251 42.074C19.2251 42.704 19.0631 43.202 18.7391 43.568C18.4211 43.928 17.9321 44.108 17.2721 44.108ZM21.6782 44.108C21.1622 44.108 20.7632 43.943 20.4812 43.613C20.1992 43.277 20.0582 42.803 20.0582 42.191V39.059H21.0392V42.083C21.0392 42.467 21.1172 42.761 21.2732 42.965C21.4352 43.163 21.6932 43.262 22.0472 43.262C22.1792 43.262 22.3112 43.247 22.4432 43.217C22.5752 43.181 22.6922 43.127 22.7942 43.055C22.9022 42.983 22.9862 42.893 23.0462 42.785C23.1122 42.671 23.1452 42.539 23.1452 42.389V39.059H24.1262V43.199H24.6482V44H24.0002C23.7482 44 23.5592 43.928 23.4332 43.784C23.3072 43.634 23.2382 43.427 23.2262 43.163H23.1812C23.0792 43.439 22.9022 43.667 22.6502 43.847C22.4042 44.021 22.0802 44.108 21.6782 44.108ZM27.3769 44.108C27.0469 44.108 26.7499 44.063 26.4859 43.973C26.2279 43.877 26.0059 43.745 25.8199 43.577C25.6399 43.403 25.4989 43.196 25.3969 42.956C25.3009 42.71 25.2529 42.437 25.2529 42.137V39.059H26.2339V42.065C26.2339 42.461 26.3329 42.767 26.5309 42.983C26.7349 43.199 27.0169 43.307 27.3769 43.307C27.7369 43.307 28.0159 43.199 28.2139 42.983C28.4179 42.767 28.5199 42.461 28.5199 42.065V39.059H29.5009V42.137C29.5009 42.437 29.4499 42.71 29.3479 42.956C29.2519 43.196 29.1109 43.403 28.9249 43.577C28.7449 43.745 28.5229 43.877 28.2589 43.973C28.0009 44.063 27.7069 44.108 27.3769 44.108ZM30.5014 39.059H31.4824V39.878H31.5274C31.5694 39.758 31.6294 39.644 31.7074 39.536C31.7854 39.422 31.8814 39.323 31.9954 39.239C32.1094 39.149 32.2444 39.08 32.4004 39.032C32.5624 38.978 32.7484 38.951 32.9584 38.951C33.4864 38.951 33.8944 39.116 34.1824 39.446C34.4704 39.776 34.6144 40.25 34.6144 40.868V44H33.6334V40.976C33.6334 40.604 33.5524 40.316 33.3904 40.112C33.2344 39.902 32.9674 39.797 32.5894 39.797C32.4514 39.797 32.3164 39.815 32.1844 39.851C32.0524 39.881 31.9354 39.932 31.8334 40.004C31.7314 40.076 31.6474 40.169 31.5814 40.283C31.5154 40.391 31.4824 40.52 31.4824 40.67V44H30.5014V39.059Z" fill="black"/>
<path d="M9.457 16L7.312 6.926H8.807L9.73 11.294L10.367 14.31H10.406L11.134 11.294L12.213 6.926H13.851L14.917 11.294L15.632 14.297H15.671L16.334 11.294L17.283 6.926H18.726L16.49 16H14.839L13.682 11.307L13.006 8.551H12.98L12.291 11.307L11.108 16H9.457ZM21.5429 16L19.3979 6.926H20.8929L21.8159 11.294L22.4529 14.31H22.4919L23.2199 11.294L24.2989 6.926H25.9369L27.0029 11.294L27.7179 14.297H27.7569L28.4199 11.294L29.3689 6.926H30.8119L28.5759 16H26.9249L25.7679 11.307L25.0919 8.551H25.0659L24.3769 11.307L23.1939 16H21.5429ZM33.6289 16L31.4839 6.926H32.9789L33.9019 11.294L34.5389 14.31H34.5779L35.3059 11.294L36.3849 6.926H38.0229L39.0889 11.294L39.8039 14.297H39.8429L40.5059 11.294L41.4549 6.926H42.8979L40.6619 16H39.0109L37.8539 11.307L37.1779 8.551H37.1519L36.4629 11.307L35.2799 16H33.6289Z" fill="black"/>
</svg>
