<svg width="50" height="50" viewBox="0 0 50 50" fill="none" xmlns="http://www.w3.org/2000/svg">
<rect width="50" height="50" rx="5" fill="#74201C"/>
<path d="M5.16517 27.364L4.13317 26.932C4.16517 26.54 4.26117 26.18 4.42117 25.852C4.58917 25.524 4.80917 25.244 5.08117 25.012C5.35317 24.772 5.67317 24.588 6.04117 24.46C6.40917 24.332 6.80917 24.268 7.24117 24.268C8.19317 24.268 8.93317 24.512 9.46117 25C9.98917 25.48 10.2532 26.132 10.2532 26.956V31H8.94517V27.124C8.94517 26.548 8.78917 26.108 8.47717 25.804C8.16517 25.492 7.73717 25.336 7.19317 25.336C6.75317 25.336 6.36517 25.436 6.02917 25.636C5.70117 25.828 5.47717 26.088 5.35717 26.416L5.87317 26.62C6.09717 26.708 6.25317 26.812 6.34117 26.932C6.42917 27.044 6.47317 27.212 6.47317 27.436V31H5.16517V27.364ZM13.9375 31.144C13.3215 31.144 12.7975 31.04 12.3655 30.832C11.9415 30.616 11.5695 30.316 11.2495 29.932L12.0775 29.152C12.3175 29.456 12.5975 29.688 12.9175 29.848C13.2375 30.008 13.6015 30.088 14.0095 30.088C14.4415 30.088 14.7615 30.012 14.9695 29.86C15.1855 29.7 15.2935 29.476 15.2935 29.188C15.2935 28.932 15.2095 28.736 15.0415 28.6C14.8815 28.456 14.6255 28.36 14.2735 28.312L13.6615 28.228C13.3655 28.188 13.0855 28.124 12.8215 28.036C12.5575 27.948 12.3255 27.828 12.1255 27.676C11.9335 27.524 11.7775 27.336 11.6575 27.112C11.5455 26.888 11.4895 26.612 11.4895 26.284C11.4895 25.964 11.5495 25.68 11.6695 25.432C11.7895 25.176 11.9575 24.964 12.1735 24.796C12.3895 24.62 12.6455 24.488 12.9415 24.4C13.2455 24.312 13.5775 24.268 13.9375 24.268C14.5375 24.268 15.0295 24.36 15.4135 24.544C15.7975 24.72 16.1375 24.968 16.4335 25.288L15.6415 26.08C15.4575 25.872 15.2215 25.696 14.9335 25.552C14.6455 25.408 14.3135 25.336 13.9375 25.336C13.5455 25.336 13.2495 25.412 13.0495 25.564C12.8495 25.716 12.7495 25.924 12.7495 26.188C12.7495 26.468 12.8415 26.676 13.0255 26.812C13.2095 26.948 13.4815 27.04 13.8415 27.088L14.4535 27.184C14.7655 27.232 15.0495 27.3 15.3055 27.388C15.5695 27.476 15.7935 27.596 15.9775 27.748C16.1615 27.892 16.3015 28.072 16.3975 28.288C16.5015 28.504 16.5535 28.764 16.5535 29.068C16.5535 29.38 16.4895 29.664 16.3615 29.92C16.2415 30.176 16.0655 30.396 15.8335 30.58C15.6095 30.756 15.3335 30.896 15.0055 31C14.6855 31.096 14.3295 31.144 13.9375 31.144ZM18.8214 29.908C18.4054 29.908 18.0934 29.808 17.8854 29.608C17.6774 29.408 17.5734 29.128 17.5734 28.768V28.156H18.7494V28.816H20.7534V29.908H18.8214ZM18.8214 26.884C18.4054 26.884 18.0934 26.788 17.8854 26.596C17.6774 26.396 17.5734 26.116 17.5734 25.756V25.132H18.7494V25.792H20.7534V26.884H18.8214ZM22.0864 24.412H23.3944V25.504H23.4544C23.5104 25.344 23.5904 25.192 23.6944 25.048C23.7984 24.896 23.9264 24.764 24.0784 24.652C24.2304 24.532 24.4104 24.44 24.6184 24.376C24.8344 24.304 25.0824 24.268 25.3624 24.268C26.0664 24.268 26.6104 24.488 26.9944 24.928C27.3784 25.368 27.5704 26 27.5704 26.824V31H26.2624V26.968C26.2624 26.472 26.1544 26.088 25.9384 25.816C25.7304 25.536 25.3744 25.396 24.8704 25.396C24.6864 25.396 24.5064 25.42 24.3304 25.468C24.1544 25.508 23.9984 25.576 23.8624 25.672C23.7264 25.768 23.6144 25.892 23.5264 26.044C23.4384 26.188 23.3944 26.36 23.3944 26.56V31H22.0864V24.412ZM31.2592 31.144C30.6432 31.144 30.1192 31.04 29.6872 30.832C29.2632 30.616 28.8912 30.316 28.5712 29.932L29.3992 29.152C29.6392 29.456 29.9192 29.688 30.2392 29.848C30.5592 30.008 30.9232 30.088 31.3312 30.088C31.7632 30.088 32.0832 30.012 32.2912 29.86C32.5072 29.7 32.6152 29.476 32.6152 29.188C32.6152 28.932 32.5312 28.736 32.3632 28.6C32.2032 28.456 31.9472 28.36 31.5952 28.312L30.9832 28.228C30.6872 28.188 30.4072 28.124 30.1432 28.036C29.8792 27.948 29.6472 27.828 29.4472 27.676C29.2552 27.524 29.0992 27.336 28.9792 27.112C28.8672 26.888 28.8112 26.612 28.8112 26.284C28.8112 25.964 28.8712 25.68 28.9912 25.432C29.1112 25.176 29.2792 24.964 29.4952 24.796C29.7112 24.62 29.9672 24.488 30.2632 24.4C30.5672 24.312 30.8992 24.268 31.2592 24.268C31.8592 24.268 32.3512 24.36 32.7352 24.544C33.1192 24.72 33.4592 24.968 33.7552 25.288L32.9632 26.08C32.7792 25.872 32.5432 25.696 32.2552 25.552C31.9672 25.408 31.6352 25.336 31.2592 25.336C30.8672 25.336 30.5712 25.412 30.3712 25.564C30.1712 25.716 30.0712 25.924 30.0712 26.188C30.0712 26.468 30.1632 26.676 30.3472 26.812C30.5312 26.948 30.8032 27.04 31.1632 27.088L31.7752 27.184C32.0872 27.232 32.3712 27.3 32.6272 27.388C32.8912 27.476 33.1152 27.596 33.2992 27.748C33.4832 27.892 33.6232 28.072 33.7192 28.288C33.8232 28.504 33.8752 28.764 33.8752 29.068C33.8752 29.38 33.8112 29.664 33.6832 29.92C33.5632 30.176 33.3872 30.396 33.1552 30.58C32.9312 30.756 32.6552 30.896 32.3272 31C32.0072 31.096 31.6512 31.144 31.2592 31.144ZM36.8299 31.144C36.4939 31.144 36.1739 31.104 35.8699 31.024C35.5659 30.944 35.2979 30.824 35.0659 30.664L35.5579 29.728C35.7179 29.824 35.8939 29.908 36.0859 29.98C36.2859 30.044 36.5139 30.076 36.7699 30.076C37.2499 30.076 37.6179 29.916 37.8739 29.596C38.1379 29.268 38.2699 28.82 38.2699 28.252V27.16C38.2699 26.6 38.1419 26.156 37.8859 25.828C37.6379 25.5 37.2699 25.336 36.7819 25.336C36.3899 25.336 36.0699 25.428 35.8219 25.612C35.5739 25.788 35.3939 26.028 35.2819 26.332L34.2139 25.828C34.4139 25.348 34.7339 24.968 35.1739 24.688C35.6139 24.408 36.1659 24.268 36.8299 24.268C37.2859 24.268 37.6899 24.348 38.0419 24.508C38.3939 24.668 38.6899 24.896 38.9299 25.192C39.1699 25.488 39.3499 25.848 39.4699 26.272C39.5979 26.696 39.6619 27.172 39.6619 27.7C39.6619 28.228 39.5979 28.708 39.4699 29.14C39.3419 29.564 39.1579 29.924 38.9179 30.22C38.6779 30.516 38.3819 30.744 38.0299 30.904C37.6779 31.064 37.2779 31.144 36.8299 31.144ZM40.0723 26.26H41.4043L43.0243 29.944H43.0603C43.4763 29.944 43.7963 29.796 44.0203 29.5C44.2443 29.196 44.3563 28.768 44.3563 28.216V27.184C44.3563 26.648 44.2403 26.232 44.0083 25.936C43.7763 25.632 43.4563 25.48 43.0483 25.48H42.6403V24.412H43.0723C43.9443 24.412 44.6083 24.7 45.0643 25.276C45.5203 25.852 45.7483 26.66 45.7483 27.7C45.7483 28.74 45.5123 29.552 45.0403 30.136C44.5763 30.712 43.9243 31 43.0843 31H42.1603L40.0723 26.26ZM5.40217 37.956C5.40217 37.548 5.47017 37.18 5.60617 36.852C5.75017 36.516 5.95417 36.232 6.21817 36C6.48217 35.76 6.79817 35.58 7.16617 35.46C7.54217 35.332 7.96217 35.268 8.42617 35.268C8.89017 35.268 9.30617 35.332 9.67417 35.46C10.0502 35.58 10.3702 35.76 10.6342 36C10.8982 36.232 11.0982 36.516 11.2342 36.852C11.3782 37.18 11.4502 37.548 11.4502 37.956V42H10.1422V38.04C10.1422 37.488 9.99017 37.068 9.68617 36.78C9.38217 36.484 8.96217 36.336 8.42617 36.336C7.89017 36.336 7.47017 36.484 7.16617 36.78C6.86217 37.068 6.71017 37.488 6.71017 38.04V39.552H6.77017C6.81817 39.392 6.88617 39.236 6.97417 39.084C7.06217 38.932 7.17417 38.8 7.31017 38.688C7.44617 38.568 7.61017 38.472 7.80217 38.4C7.99417 38.328 8.21817 38.292 8.47417 38.292H8.83417V39.552H8.33017C7.81017 39.552 7.41017 39.64 7.13017 39.816C6.85017 39.984 6.71017 40.248 6.71017 40.608V42H5.40217V37.956ZM16.0749 42.144C15.7949 42.144 15.5469 42.108 15.3309 42.036C15.1229 41.972 14.9429 41.884 14.7909 41.772C14.6389 41.652 14.5109 41.52 14.4069 41.376C14.3029 41.224 14.2229 41.068 14.1669 40.908H14.1069V42H12.7989V35.412H14.1069V39.852C14.1069 40.052 14.1509 40.228 14.2389 40.38C14.3269 40.524 14.4389 40.644 14.5749 40.74C14.7109 40.836 14.8669 40.908 15.0429 40.956C15.2189 40.996 15.3989 41.016 15.5829 41.016C16.0869 41.016 16.4429 40.88 16.6509 40.608C16.8669 40.328 16.9749 39.94 16.9749 39.444V35.412H18.2829V39.588C18.2829 40.412 18.0909 41.044 17.7069 41.484C17.3229 41.924 16.7789 42.144 16.0749 42.144ZM21.7076 42.144C21.0196 42.144 20.4876 41.924 20.1116 41.484C19.7356 41.036 19.5476 40.404 19.5476 39.588V35.412H20.8556V39.444C20.8556 39.956 20.9596 40.348 21.1676 40.62C21.3836 40.884 21.7276 41.016 22.1996 41.016C22.3756 41.016 22.5516 40.996 22.7276 40.956C22.9036 40.908 23.0596 40.836 23.1956 40.74C23.3396 40.644 23.4516 40.524 23.5316 40.38C23.6196 40.228 23.6636 40.052 23.6636 39.852V35.412H24.9716V40.932H25.6676V42H24.8036C24.4676 42 24.2156 41.904 24.0476 41.712C23.8796 41.512 23.7876 41.236 23.7716 40.884H23.7116C23.5756 41.252 23.3396 41.556 23.0036 41.796C22.6756 42.028 22.2436 42.144 21.7076 42.144ZM29.1441 37.536C29.1441 37.152 29.0441 36.856 28.8441 36.648C28.6441 36.44 28.3281 36.336 27.8961 36.336C27.5281 36.336 27.2321 36.416 27.0081 36.576C26.7841 36.728 26.5921 36.928 26.4321 37.176L25.6401 36.48C25.8561 36.12 26.1481 35.828 26.5161 35.604C26.8841 35.38 27.3721 35.268 27.9801 35.268C28.7801 35.268 29.3921 35.456 29.8161 35.832C30.2401 36.208 30.4521 36.748 30.4521 37.452V42H29.1441V37.536ZM31.7244 37.956C31.7244 37.548 31.7924 37.18 31.9284 36.852C32.0724 36.516 32.2764 36.232 32.5404 36C32.8044 35.76 33.1204 35.58 33.4884 35.46C33.8644 35.332 34.2844 35.268 34.7484 35.268C35.2124 35.268 35.6284 35.332 35.9964 35.46C36.3724 35.58 36.6924 35.76 36.9564 36C37.2204 36.232 37.4204 36.516 37.5564 36.852C37.7004 37.18 37.7724 37.548 37.7724 37.956V42H36.4644V38.04C36.4644 37.488 36.3124 37.068 36.0084 36.78C35.7044 36.484 35.2844 36.336 34.7484 36.336C34.2124 36.336 33.7924 36.484 33.4884 36.78C33.1844 37.068 33.0324 37.488 33.0324 38.04V39.552H33.0924C33.1404 39.392 33.2084 39.236 33.2964 39.084C33.3844 38.932 33.4964 38.8 33.6324 38.688C33.7684 38.568 33.9324 38.472 34.1244 38.4C34.3164 38.328 34.5404 38.292 34.7964 38.292H35.1564V39.552H34.6524C34.1324 39.552 33.7324 39.64 33.4524 39.816C33.1724 39.984 33.0324 40.248 33.0324 40.608V42H31.7244V37.956ZM42.397 42.144C42.117 42.144 41.869 42.108 41.653 42.036C41.445 41.972 41.265 41.884 41.113 41.772C40.961 41.652 40.833 41.52 40.729 41.376C40.625 41.224 40.545 41.068 40.489 40.908H40.429V42H39.121V35.412H40.429V39.852C40.429 40.052 40.473 40.228 40.561 40.38C40.649 40.524 40.761 40.644 40.897 40.74C41.033 40.836 41.189 40.908 41.365 40.956C41.541 40.996 41.721 41.016 41.905 41.016C42.409 41.016 42.765 40.88 42.973 40.608C43.189 40.328 43.297 39.94 43.297 39.444V35.412H44.605V39.588C44.605 40.412 44.413 41.044 44.029 41.484C43.645 41.924 43.101 42.144 42.397 42.144Z" fill="white"/>
<path d="M9.457 16L7.312 6.926H8.807L9.73 11.294L10.367 14.31H10.406L11.134 11.294L12.213 6.926H13.851L14.917 11.294L15.632 14.297H15.671L16.334 11.294L17.283 6.926H18.726L16.49 16H14.839L13.682 11.307L13.006 8.551H12.98L12.291 11.307L11.108 16H9.457ZM21.5429 16L19.3979 6.926H20.8929L21.8159 11.294L22.4529 14.31H22.4919L23.2199 11.294L24.2989 6.926H25.9369L27.0029 11.294L27.7179 14.297H27.7569L28.4199 11.294L29.3689 6.926H30.8119L28.5759 16H26.9249L25.7679 11.307L25.0919 8.551H25.0659L24.3769 11.307L23.1939 16H21.5429ZM33.6289 16L31.4839 6.926H32.9789L33.9019 11.294L34.5389 14.31H34.5779L35.3059 11.294L36.3849 6.926H38.0229L39.0889 11.294L39.8039 14.297H39.8429L40.5059 11.294L41.4549 6.926H42.8979L40.6619 16H39.0109L37.8539 11.307L37.1779 8.551H37.1519L36.4629 11.307L35.2799 16H33.6289Z" fill="white"/>
</svg>
